<svg xmlns="http://www.w3.org/2000/svg" viewBox="0 0 120 120" role="img" aria-labelledby="title desc">
  <title id="title">Green Wolf icon</title>
  <desc id="desc">Stylized green wolf head for Green Wolf Maintenance & Landscaping Inc.</desc>
  <defs>
    <linearGradient id="fur" x1="0%" x2="100%" y1="0%" y2="100%">
      <stop offset="0%" stop-color="#1b7f42" />
      <stop offset="100%" stop-color="#0f4b2c" />
    </linearGradient>
  </defs>
  <circle cx="60" cy="60" r="58" fill="#e6f4eb" />
  <path fill="url(#fur)" d="M26 74c6-3 9-10 10-19l10 10c1-6 1-12-2-18l14 12c6-2 9-7 10-14l6 7c8-4 12-10 12-18l8 7c2 9-1 17-8 24l8 2c-4 9-12 16-25 19l-12 18-6-12-10 6-4-12-11-10z" />
  <path fill="#1f703d" d="M40 87c9-3 16-9 19-17l5 6c8-2 15-7 20-14-1 6-4 12-9 16-8 7-19 10-28 9z" />
  <circle cx="82" cy="50" r="3" fill="#0b301f" />
</svg>
