<svg xmlns="http://www.w3.org/2000/svg" viewBox="0 0 96 96" role="img" aria-labelledby="title desc">
  <title id="title">Green Wolf icon</title>
  <desc id="desc">Simplified green wolf head silhouette.</desc>
  <defs>
    <linearGradient id="head" x1="12" y1="10" x2="82" y2="86" gradientUnits="userSpaceOnUse">
      <stop stop-color="#0f5a2e" />
      <stop offset="1" stop-color="#1d8a46" />
    </linearGradient>
  </defs>
  <rect width="96" height="96" rx="18" fill="#f5f2e9" />
  <path
    fill="url(#head)"
    d="M34 20c10-9 23-10 32-3 6 5 10 13 10 21v4l6 9-4 10c-5 13-20 21-33 21-8 0-16-3-22-9-6-6-10-15-9-23 1-11 8-21 16-30Z"
  />
  <path
    fill="#0b3c23"
    d="M63 31c-8-5-18-2-24 5-5 5-8 13-6 20 2 7 8 13 15 15 6 2 13 1 19-1l-1-8c-1-5-3-9-7-12s-9-3-13-1c2-4 6-7 10-9s8-2 12 0l4 3-2-6c-1-3-3-5-7-6Z"
  />
  <circle cx="60" cy="42" r="3" fill="#0b2f1c" />
</svg>
