<svg xmlns="http://www.w3.org/2000/svg" viewBox="0 0 320 320" role="img" aria-labelledby="title desc">
  <title id="title">Green Wolf Maintenance and Landscaping logo</title>
  <desc id="desc">A green wolf head with layered tones on a soft natural background.</desc>
  <defs>
    <linearGradient id="pelt" x1="32" y1="34" x2="280" y2="270" gradientUnits="userSpaceOnUse">
      <stop stop-color="#0f5a2e" />
      <stop offset="1" stop-color="#1c8041" />
    </linearGradient>
    <linearGradient id="mane" x1="160" y1="86" x2="210" y2="250" gradientUnits="userSpaceOnUse">
      <stop stop-color="#135d32" />
      <stop offset="1" stop-color="#2e9a55" />
    </linearGradient>
  </defs>
  <rect width="320" height="320" rx="36" fill="#f5f2e9" />
  <path
    fill="url(#pelt)"
    d="M93 76c19-18 43-31 68-36 14 6 27 15 38 28 13 15 22 35 25 57 2 17 0 33-6 48-12 29-37 52-69 64l-18 7-42-28-43-8 26-32 3-39 18-48Z"
  />
  <path
    fill="url(#mane)"
    d="M154 76c-21 15-30 53-24 84 4 23 17 45 34 60-16 2-33-1-48-9-17-10-30-28-33-48-4-26 9-53 29-69 15-13 33-22 42-18Z"
  />
  <path
    fill="#0c4a2b"
    d="M244 150c-18-24-38-39-69-41l-31-1 14-18c10-13 28-20 44-17 15 3 26 12 32 26l10 25Z"
  />
  <path
    fill="#0d3d25"
    d="M244 151c-5 15-16 28-29 36-21 13-47 16-70 7l-18-7 9-11c15-19 39-30 63-28 15 1 30 7 45 15Z"
  />
  <path
    fill="#0f5a2e"
    d="M102 77c-2 18-11 38-23 54-10 14-23 26-36 37 6-20 7-42 3-63 18-1 40-10 56-28Z"
  />
  <path
    fill="#0a3a21"
    d="M192 91c-17 2-26 5-34 14-6 7-10 15-10 25-3-1-5-3-7-7-2-6-1-12 2-17 6-10 21-18 49-15Z"
  />
  <path
    fill="#0f5a2e"
    d="M223 120c-15-7-30-10-47-8l10-8c11-9 28-11 41-4 5 3 10 7 13 12l12 17-5 9c-7-8-15-14-24-18Z"
  />
  <path
    fill="#0b2f1c"
    d="M233 194c-9-11-18-17-30-19-9-1-18 1-26 7-6 5-10 10-12 17l-6-6c9-24 40-39 69-28l9 29c-1 0-2 0-4 0Z"
  />
  <path fill="#f5f2e9" d="M237 133c-5-3-8-7-8-12s3-9 7-12l6 13-5 11Z" />
  <circle cx="231" cy="128" r="5" fill="#0b2f1c" />
</svg>
