<svg xmlns="http://www.w3.org/2000/svg" viewBox="0 0 420 220" role="img" aria-labelledby="title desc">
  <title id="title">Green Wolf Maintenance & Landscaping logo</title>
  <desc id="desc">Wordmark and wolf icon for Green Wolf Maintenance & Landscaping Inc.</desc>
  <defs>
    <linearGradient id="fur" x1="0%" x2="100%" y1="0%" y2="100%">
      <stop offset="0%" stop-color="#1b7f42" />
      <stop offset="100%" stop-color="#0f4b2c" />
    </linearGradient>
  </defs>
  <rect width="420" height="220" rx="24" fill="#f7f4ec" />
  <g transform="translate(20 40)">
    <circle cx="80" cy="70" r="70" fill="#e6f4eb" />
    <path fill="url(#fur)" d="M35 95c8-4 12-12 13-24l13 12c2-7 1-15-2-22l19 15c8-3 12-8 13-17l8 8c10-5 16-13 16-23l11 9c2 11-2 22-10 31l10 3c-5 11-16 21-34 25l-16 24-8-15-13 8-5-15-15-13z" />
    <path fill="#1f703d" d="M56 116c12-3 22-11 26-21l7 7c10-2 21-8 27-17-2 8-6 15-12 21-10 10-25 14-38 13z" />
    <circle cx="116" cy="66" r="4" fill="#0b301f" />
  </g>
  <g transform="translate(190 70)" fill="#0b301f">
    <text x="0" y="32" font-family="'Inter', 'Segoe UI', sans-serif" font-size="48" font-weight="800" letter-spacing="3">GREEN WOLF</text>
    <text x="2" y="74" font-family="'Inter', 'Segoe UI', sans-serif" font-size="18" font-weight="700" letter-spacing="2">MAINTENANCE &amp; LANDSCAPING INC.</text>
  </g>
</svg>
